<svg xmlns="http://www.w3.org/2000/svg" viewBox="0 0 400 260" role="img" aria-label="炎">
  <defs>
    <linearGradient id="bg" x1="0" y1="0" x2="0" y2="1">
      <stop offset="0" stop-color="#0f0f1a"/>
      <stop offset="1" stop-color="#3a0d0d"/>
    </linearGradient>
    <linearGradient id="flame" x1="0" y1="1" x2="0" y2="0">
      <stop offset="0" stop-color="#ff4e00"/>
      <stop offset="0.6" stop-color="#ff9a00"/>
      <stop offset="1" stop-color="#ffd54d"/>
    </linearGradient>
  </defs>
  <rect width="400" height="260" fill="url(#bg)"/>
  <path d="M200 40 C230 90 265 105 260 155 C257 195 232 220 200 220 C168 220 143 195 140 155 C137 120 155 110 165 85 C172 105 185 110 185 95 C185 75 190 60 200 40 Z" fill="url(#flame)"/>
  <path d="M200 110 C215 135 228 143 225 168 C223 190 212 200 200 200 C188 200 177 190 175 168 C173 150 185 140 190 128 C193 138 200 140 199 130 C198 122 197 118 200 110 Z" fill="#fff3c4"/>
  <text x="200" y="245" text-anchor="middle" font-family="sans-serif" font-size="22" font-weight="bold" fill="#ffd54d">燃えろ！今日という日を掴め</text>
</svg>
